<?xml version="1.0" encoding="utf-8"?>
<!-- Generator: Adobe Illustrator 23.0.1, SVG Export Plug-In . SVG Version: 6.00 Build 0)  -->
<svg version="1.1" id="Layer_1" xmlns="http://www.w3.org/2000/svg" xmlns:xlink="http://www.w3.org/1999/xlink" x="0px" y="0px"
	 viewBox="0 0 630.5 172.55" style="enable-background:new 0 0 630.5 172.55;" xml:space="preserve">
<style type="text/css">
	.st0{fill:#F48183;}
	.st1{font-family:'Helvetica';}
	.st2{font-size:60px;}
	.st3{fill:#02B3B0;}
	.st4{fill:#60C5C0;}
	.st5{fill:#07B4B1;}
	.st6{fill:#50C3C7;}
	.st7{fill:#FFFFFF;}
	.st8{fill:none;stroke:#FFFFFF;stroke-miterlimit:10;}
</style>
<text transform="matrix(1 0 0 1 211.007 76.0275)" class="st0 st1 st2">Liberty</text>
<text transform="matrix(1 0 0 1 211.007 132.9534)" class="st3 st1 st2">Dental Hygiene</text>
<path class="st4" d="M112.2,96.39c-0.07-0.71-0.24-2.12-1.09-3.34c-0.67-0.96-1.61-1.45-2.75-1.54c-0.77-0.06-1.52,0-2.25,0.35
	c-1.26,0.6-1.89,1.67-2.29,2.92c-0.36,1.13-0.53,2.3-0.59,3.49c-0.08,1.76-0.13,3.53-0.23,5.29c-0.04,0.73-0.19,1.45-0.31,2.17
	c-0.03,0.18-0.11,0.36-0.18,0.53c-0.58,1.4-1.93,1.13-2.62,0.47c-0.59-0.55-0.94-1.26-1.23-2c-0.54-1.43-0.86-2.92-1.11-4.42
	c-0.35-2.13-0.67-4.26-1.03-6.39c-0.13-0.78-0.32-1.54-0.5-2.31c-0.28-1.15-0.89-2.15-1.51-3.13c-0.85-1.35-1.73-2.68-2.57-4.04
	c-0.96-1.55-1.78-3.18-2.21-4.97c-0.18-0.76-0.33-1.55-0.38-2.33c-0.1-1.63-0.14-3.27,0.21-4.88c0.16-0.77,0.38-1.53,0.66-2.27
	c0.16-0.43,0.44-0.84,0.44-0.84c0.06-0.11,0.15-0.25,0.38-0.61c0.13-0.2,0.42-0.66,0.62-0.94c1.27-1.81,2.7-2.69,2.7-2.69
	c0.1-0.06,2.17-1.42,4.67-1.15c0.72,0.08,1.45,0.2,2.16,0.35c0.57,0.12,1.12,0.3,1.68,0.48c1.58,0.51,3.08,1.2,4.52,2
	c0.34,0.19,0.61,0.19,0.94,0.01c0.94-0.51,1.87-1.03,2.84-1.49c0.59-0.28,1.23-0.47,1.85-0.67c1.27-0.4,2.57-0.72,3.92-0.68
	c2.61,0.07,4.83,1.03,6.51,3.06c1.06,1.28,1.65,2.8,1.97,4.43c0.25,1.28,0.33,2.56,0.34,3.86c0,0.23,0,0.5-0.02,0.87
	c-0.09,1.97-0.49,3.46-0.74,4.25c-0.18,0.57-0.34,1.04-0.75,1.93c-0.72,1.55-1.55,3.05-2.22,4.62c-0.57,1.33-1.39,2.48-2.16,3.68
	c-0.44,0.69-0.68,1.47-0.82,2.26c-0.3,1.7-0.56,3.4-0.82,5.11c-0.28,1.91-0.49,3.84-1.04,5.7c-0.21,0.71-0.51,1.41-0.86,2.07
	c-0.19,0.37-0.51,0.7-0.84,0.96c-0.97,0.77-2.16,0.45-2.6-0.71c-0.27-0.7-0.34-1.31-0.34-1.47
	C112.56,104.37,112.59,100.44,112.2,96.39z"/>
<path class="st0" d="M121.31,81.72c-6.84-1.16-14.76-6.1-15.9-6.86c-0.02-0.01-0.1-0.07-0.22-0.15c-0.36-0.24-1.08-0.71-2.03-1.31
	c-0.21-0.13-0.37-0.23-0.4-0.25c-2.57-1.58-5.3-2.09-5.3-2.09c-2.06-0.38-4.99-0.42-5.63-0.4c-0.1,0-0.46-0.04-1.17-0.13
	c-0.11-0.01-0.4,0.01-0.48-0.15c-0.03-0.06-0.03-0.12-0.02-0.16c0.12-0.76,1.43-2.7,1.43-2.7c0,0,0.42-0.62,0.77-1.04
	c0.12-0.14,0.25-0.29,0.39-0.44c0,0,0.01-0.01,0.02-0.02c0.39-0.4,1.41-1.47,3.01-2.04c2.08-0.74,3.92-0.4,5.13-0.17
	c1.16,0.22,2.2,0.59,2.7,0.77c0.72,0.26,1.41,0.51,2.29,0.96c1.15,0.58,1.5,0.92,1.94,1c0.04,0.01,0.16,0.04,0.31,0.01
	c0.13-0.03,0.22-0.09,0.29-0.14c0.03-0.02-0.17,0.12,1.13-0.64c0.02-0.01,0,0,0,0l0,0c1.29-0.75,2.64-1.27,2.64-1.27
	c0.59-0.23,1.48-0.57,2.68-0.78c1.35-0.24,3.77-0.63,6.16,0.7c0.05,0.03,0.15,0.09,0.29,0.17c2.33,1.43,3.23,3.69,3.56,4.55
	c0.4,1.05,0.54,1.93,0.71,3.06c0.16,1.05,0.19,1.85,0.2,2.04c0.06,1.54-0.15,2.92-0.31,3.95c-0.03,0.19-0.07,0.42-0.13,0.7
	c-0.05,0.22-0.07,0.26-0.16,0.63c-0.16,0.59-0.15,0.62-0.22,0.87c-0.13,0.44-0.29,0.75-0.32,0.81
	C124.14,82.2,121.31,81.72,121.31,81.72z"/>
<path class="st4" d="M129.24,53.3c0.24-0.06,0.44-0.09,0.62-0.16c0.59-0.23,1.03-0.42,1.41-0.63c0.96-0.53,1.43-0.79,1.98-1.12
	c0.27-0.17,0.9-0.55,1.7-1.09c0.4-0.27,1.05-0.71,1.87-1.33c0.22-0.17,1.23-0.94,2.52-2.08c0.66-0.59,1.13-1.05,1.57-1.47
	c0.37-0.36,1.05-1.02,1.88-1.89c0.76-0.79,1.31-1.41,1.52-1.64c0.44-0.49,1.06-1.18,1.83-2.13c0.16-0.2,0.8-0.99,1.56-2.03
	c0.35-0.48,0.68-0.95,0.84-1.17c0.34-0.48,0.6-0.86,0.77-1.11c0.38-0.56,0.66-0.98,0.87-1.28c0.29-0.43,0.43-0.65,0.61-0.92
	c0,0,0.36-0.56,0.69-1.11c0.84-1.39,1.66-3.08,1.83-3.44c0.69-1.43,1.14-2.54,1.28-2.89c0.4-0.99,0.67-1.76,0.78-2.09
	c0.13-0.36,0.36-1.04,0.61-1.91c0.35-1.17,0.56-2.07,0.7-2.69c0.23-0.97,0.37-1.68,0.43-2.01c0.08-0.43,0.14-0.78,0.15-0.85
	c0.02-0.14,0.08-0.49,0.14-0.93c0.11-0.78,0.17-1.4,0.21-1.83c0.1-1.06,0.14-1.87,0.16-2.11c0.02-0.32,0.13-1.21,0.07-2.47
	c-0.06-1.4-0.2-2.8-0.31-4.21c-0.01-0.18-0.1-0.35-0.17-0.6c-0.58,0.23-1.11,0.4-1.61,0.64c-0.86,0.42-1.7,0.88-2.55,1.31
	c-1.46,0.74-2.82,1.65-4.14,2.6c-2.18,1.57-4.21,3.32-6.08,5.25c-1.41,1.46-2.72,3.01-3.92,4.64c-1.39,1.9-2.62,3.89-3.69,5.98
	c-1.24,2.43-2.33,4.92-3.25,7.49c-1.26,3.53-2.18,7.14-2.72,10.85c-0.4,2.76-0.51,5.53-0.41,8.31c0.02,0.49,0.07,0.97,0.12,1.46
	C129.12,52.84,129.19,53.04,129.24,53.3z"/>
<g>
	<path class="st5" d="M157.35,4.11c-0.12-0.02-0.34,0.83-0.64,2.13c-0.23,1.01-0.35,1.51-0.42,1.91c-0.19,1.02-1.88,9.17-5.8,17.46
		c-1.9,4.02-4.07,7.53-4.44,8.13c0,0.01-0.01,0.01-0.01,0.02c-1.83,2.94-3.47,5.18-4.46,6.47c-0.86,1.13-2.23,2.87-4.03,4.88
		c-2.02,2.27-4.62,4.96-8.14,7.94c-0.04,0.03-0.17,0.17-0.21,0.24c-0.02,0.03,0.2,0.03,0.45-0.05c0.48-0.15,1.27-0.42,1.86-0.71
		c1.27-0.63,2.31-1.29,2.97-1.75c1.12-0.79,2.24-1.64,3.21-2.38c2.49-1.93,4.12-3.66,4.12-3.66c0,0,3.46-3.4,6.58-7.75
		c0.72-1.01,1.44-2.09,1.44-2.09c0.67-1.01,1.55-2.35,2.43-3.95c1.09-1.97,1.69-3.33,2.33-4.89c0.92-2.19,1.3-3.71,1.42-4.09
		c0.43-1.39,0.68-2.42,0.74-2.7c0.26-1.23,0.49-2.38,0.58-3.13c0.25-2.15,0.4-3.94,0.54-5.8c0,0,0.03-1.32-0.12-3.37
		c-0.01-0.12,0,0-0.11-1.22c-0.02-0.25-0.06-0.51-0.09-0.76c-0.01-0.08-0.03-0.32-0.11-0.61C157.4,4.2,157.38,4.11,157.35,4.11z"/>
</g>
<path class="st4" d="M145.59,85.71c0.17,0.18,0.3,0.34,0.45,0.46c0.5,0.4,0.88,0.68,1.26,0.91c0.93,0.57,1.4,0.85,1.96,1.15
	c0.28,0.15,0.93,0.5,1.8,0.93c0.44,0.21,1.14,0.56,2.08,0.95c0.26,0.11,1.43,0.6,3.06,1.14c0.84,0.28,1.47,0.46,2.06,0.63
	c0.5,0.14,1.41,0.4,2.58,0.68c1.06,0.26,1.88,0.43,2.18,0.5c0.65,0.14,1.56,0.32,2.76,0.51c0.26,0.04,1.26,0.2,2.54,0.34
	c0.6,0.06,1.16,0.12,1.44,0.14c0.59,0.05,1.04,0.09,1.35,0.11c0.67,0.05,1.18,0.08,1.54,0.11c0.52,0.03,0.78,0.05,1.1,0.07
	c0,0,0.66,0.03,1.3,0.04c1.63,0.03,3.5-0.11,3.89-0.14c1.59-0.12,2.77-0.28,3.14-0.33c1.06-0.15,1.86-0.3,2.2-0.36
	c0.38-0.07,1.08-0.21,1.96-0.43c1.19-0.29,2.07-0.55,2.68-0.73c0.96-0.29,1.64-0.52,1.96-0.63c0.41-0.14,0.74-0.27,0.81-0.29
	c0.13-0.05,0.47-0.18,0.88-0.34c0.73-0.3,1.29-0.56,1.69-0.73c0.96-0.44,1.69-0.81,1.9-0.92c0.29-0.15,1.11-0.49,2.18-1.18
	c1.18-0.76,2.33-1.57,3.49-2.38c0.15-0.1,0.25-0.26,0.43-0.45c-0.49-0.39-0.9-0.77-1.36-1.08c-0.79-0.54-1.61-1.03-2.41-1.55
	c-1.37-0.89-2.84-1.62-4.32-2.29c-2.45-1.11-4.98-1.99-7.59-2.64c-1.97-0.49-3.96-0.85-5.98-1.07c-2.34-0.25-4.68-0.33-7.03-0.21
	c-2.72,0.14-5.42,0.44-8.11,0.93c-3.68,0.67-7.27,1.68-10.75,3.07c-2.59,1.03-5.04,2.32-7.4,3.8c-0.41,0.26-0.81,0.55-1.2,0.84
	C145.93,85.38,145.79,85.53,145.59,85.71z"/>
<g>
	<path class="st5" d="M202.24,85.45c-0.05-0.11-0.88,0.12-2.17,0.52c-0.99,0.31-1.48,0.46-1.87,0.59
		c-0.97,0.35-8.89,2.95-18.02,3.71c-4.43,0.36-8.56,0.24-9.26,0.22c-0.01,0-0.02,0-0.02,0c-3.46-0.11-6.22-0.42-7.84-0.62
		c-1.41-0.18-3.6-0.5-6.24-1.05c-2.98-0.62-6.6-1.52-10.95-3.08c-0.05-0.02-0.23-0.06-0.31-0.06c-0.03,0,0.08,0.19,0.27,0.37
		c0.37,0.34,1,0.89,1.54,1.25c1.18,0.79,2.27,1.36,3,1.69c1.25,0.57,2.54,1.13,3.67,1.59c2.92,1.19,5.23,1.74,5.23,1.74
		s4.68,1.3,10,1.82c1.23,0.12,2.53,0.2,2.53,0.2c1.21,0.07,2.81,0.17,4.64,0.13c2.25-0.04,3.73-0.21,5.4-0.42
		c2.36-0.3,3.86-0.73,4.25-0.82c1.42-0.32,2.44-0.62,2.71-0.71c1.2-0.39,2.31-0.76,3.01-1.06c1.99-0.86,3.62-1.62,5.29-2.43
		c0,0,1.15-0.64,2.86-1.79c0.1-0.07,0,0,1-0.7c0.21-0.15,0.41-0.31,0.62-0.46c0.07-0.05,0.26-0.18,0.47-0.4
		C202.19,85.55,202.26,85.48,202.24,85.45z"/>
</g>
<path class="st4" d="M129.48,113.83c-0.07,0.24-0.14,0.43-0.17,0.62c-0.1,0.63-0.16,1.1-0.17,1.54c-0.03,1.09-0.05,1.64-0.04,2.27
	c0.01,0.32,0.02,1.06,0.08,2.02c0.03,0.49,0.08,1.27,0.2,2.28c0.03,0.28,0.18,1.54,0.52,3.22c0.17,0.87,0.33,1.51,0.47,2.1
	c0.12,0.5,0.35,1.42,0.68,2.58c0.3,1.05,0.55,1.85,0.64,2.14c0.2,0.63,0.48,1.51,0.91,2.66c0.09,0.25,0.45,1.19,0.96,2.37
	c0.24,0.55,0.47,1.07,0.59,1.32c0.24,0.54,0.44,0.95,0.57,1.23c0.29,0.61,0.51,1.07,0.67,1.4c0.23,0.47,0.34,0.7,0.48,0.99
	c0,0,0.3,0.59,0.6,1.15c0.78,1.43,1.82,2.99,2.04,3.32c0.88,1.32,1.61,2.27,1.84,2.57c0.65,0.85,1.18,1.47,1.4,1.73
	c0.25,0.29,0.72,0.84,1.34,1.5c0.83,0.89,1.5,1.53,1.96,1.97c0.72,0.69,1.26,1.17,1.52,1.39c0.33,0.29,0.6,0.51,0.66,0.56
	c0.11,0.09,0.39,0.32,0.73,0.6c0.62,0.49,1.12,0.85,1.47,1.1c0.86,0.62,1.54,1.07,1.74,1.2c0.27,0.18,0.98,0.72,2.1,1.31
	c1.24,0.66,2.52,1.25,3.79,1.86c0.16,0.08,0.35,0.09,0.61,0.16c0.1-0.61,0.22-1.16,0.27-1.71c0.08-0.95,0.1-1.91,0.16-2.86
	c0.1-1.63,0.01-3.27-0.14-4.89c-0.25-2.68-0.72-5.31-1.45-7.9c-0.55-1.96-1.21-3.87-2.02-5.73c-0.93-2.16-2.02-4.23-3.29-6.22
	c-1.46-2.3-3.06-4.5-4.81-6.59c-2.4-2.87-5.05-5.49-7.97-7.84c-2.18-1.75-4.51-3.24-6.96-4.56c-0.43-0.23-0.88-0.43-1.32-0.63
	C129.94,113.95,129.74,113.91,129.48,113.83z"/>
<g>
	<path class="st5" d="M157.65,162.98c0.08-0.1-0.54-0.71-1.52-1.63c-0.75-0.71-1.13-1.06-1.44-1.33
		c-0.78-0.68-6.95-6.27-12.11-13.85c-2.5-3.68-4.43-7.33-4.76-7.95c0-0.01-0.01-0.01-0.01-0.02c-1.61-3.06-2.71-5.62-3.32-7.13
		c-0.54-1.31-1.34-3.38-2.16-5.94c-0.93-2.89-1.94-6.49-2.72-11.04c-0.01-0.05-0.06-0.23-0.1-0.3c-0.01-0.03-0.13,0.16-0.19,0.41
		c-0.12,0.49-0.28,1.3-0.33,1.96c-0.1,1.42-0.06,2.65,0.01,3.44c0.12,1.37,0.27,2.77,0.43,3.98c0.4,3.13,1.06,5.4,1.06,5.4
		c0,0,1.18,4.71,3.35,9.6c0.5,1.13,1.07,2.3,1.07,2.3c0.53,1.09,1.24,2.53,2.17,4.1c1.15,1.94,2.02,3.14,3.03,4.49
		c1.43,1.9,2.54,3,2.81,3.29c0.98,1.08,1.74,1.82,1.96,2.01c0.93,0.85,1.8,1.63,2.41,2.09c1.73,1.31,3.19,2.35,4.72,3.4
		c0,0,1.12,0.69,2.97,1.61c0.1,0.05,0,0,1.1,0.52c0.23,0.11,0.47,0.2,0.7,0.31c0.08,0.04,0.29,0.13,0.58,0.21
		C157.54,162.98,157.63,163.01,157.65,162.98z"/>
</g>
<path class="st4" d="M86.3,53.3c-0.24-0.06-0.44-0.09-0.62-0.16c-0.59-0.23-1.03-0.42-1.41-0.63c-0.96-0.53-1.43-0.79-1.98-1.12
	c-0.27-0.17-0.9-0.55-1.7-1.09c-0.4-0.27-1.05-0.71-1.87-1.33c-0.22-0.17-1.23-0.94-2.52-2.08c-0.66-0.59-1.13-1.05-1.57-1.47
	c-0.37-0.36-1.05-1.02-1.88-1.89c-0.76-0.79-1.31-1.41-1.52-1.64c-0.44-0.49-1.06-1.18-1.83-2.13c-0.16-0.2-0.8-0.99-1.56-2.03
	c-0.35-0.48-0.68-0.95-0.84-1.17c-0.34-0.48-0.6-0.86-0.77-1.11c-0.38-0.56-0.66-0.98-0.87-1.28c-0.29-0.43-0.43-0.65-0.61-0.92
	c0,0-0.36-0.56-0.69-1.11c-0.84-1.39-1.66-3.08-1.83-3.44c-0.69-1.43-1.14-2.54-1.28-2.89c-0.4-0.99-0.67-1.76-0.78-2.09
	c-0.13-0.36-0.36-1.04-0.61-1.91c-0.35-1.17-0.56-2.07-0.7-2.69c-0.23-0.97-0.37-1.68-0.43-2.01c-0.08-0.43-0.14-0.78-0.15-0.85
	c-0.02-0.14-0.08-0.49-0.14-0.93c-0.11-0.78-0.17-1.4-0.21-1.83c-0.1-1.06-0.14-1.87-0.16-2.11c-0.02-0.32-0.13-1.21-0.07-2.47
	c0.06-1.4,0.2-2.8,0.31-4.21c0.01-0.18,0.1-0.35,0.17-0.6c0.58,0.23,1.11,0.4,1.61,0.64c0.86,0.42,1.7,0.88,2.55,1.31
	c1.46,0.74,2.82,1.65,4.14,2.6c2.18,1.57,4.21,3.32,6.08,5.25c1.41,1.46,2.72,3.01,3.92,4.64c1.39,1.9,2.62,3.89,3.69,5.98
	c1.24,2.43,2.33,4.92,3.25,7.49c1.26,3.53,2.18,7.14,2.72,10.85c0.4,2.76,0.51,5.53,0.41,8.31c-0.02,0.49-0.07,0.97-0.12,1.46
	C86.42,52.84,86.36,53.04,86.3,53.3z"/>
<g>
	<path class="st5" d="M58.2,4.11c0.12-0.02,0.34,0.83,0.64,2.13c0.23,1.01,0.35,1.51,0.42,1.91c0.19,1.02,1.88,9.17,5.8,17.46
		c1.9,4.02,4.07,7.53,4.44,8.13c0,0.01,0.01,0.01,0.01,0.02c1.83,2.94,3.47,5.18,4.46,6.47c0.86,1.13,2.23,2.87,4.03,4.88
		c2.02,2.27,4.62,4.96,8.14,7.94c0.04,0.03,0.17,0.17,0.21,0.24c0.02,0.03-0.2,0.03-0.45-0.05c-0.48-0.15-1.27-0.42-1.86-0.71
		c-1.27-0.63-2.31-1.29-2.97-1.75c-1.12-0.79-2.24-1.64-3.21-2.38c-2.49-1.93-4.12-3.66-4.12-3.66c0,0-3.46-3.4-6.58-7.75
		c-0.72-1.01-1.44-2.09-1.44-2.09c-0.67-1.01-1.55-2.35-2.43-3.95c-1.09-1.97-1.69-3.33-2.33-4.89c-0.92-2.19-1.3-3.71-1.42-4.09
		c-0.43-1.39-0.68-2.42-0.74-2.7c-0.26-1.23-0.49-2.38-0.58-3.13c-0.25-2.15-0.4-3.94-0.54-5.8c0,0-0.03-1.32,0.12-3.37
		c0.01-0.12,0,0,0.11-1.22c0.02-0.25,0.06-0.51,0.09-0.76c0.01-0.08,0.03-0.32,0.11-0.61C58.14,4.2,58.17,4.11,58.2,4.11z"/>
</g>
<path class="st4" d="M69.95,85.71c-0.17,0.18-0.3,0.34-0.45,0.46c-0.5,0.4-0.88,0.68-1.26,0.91c-0.93,0.57-1.4,0.85-1.96,1.15
	c-0.28,0.15-0.93,0.5-1.8,0.93c-0.44,0.21-1.14,0.56-2.08,0.95c-0.26,0.11-1.43,0.6-3.06,1.14c-0.84,0.28-1.47,0.46-2.06,0.63
	c-0.5,0.14-1.41,0.4-2.58,0.68c-1.06,0.26-1.88,0.43-2.18,0.5c-0.65,0.14-1.56,0.32-2.76,0.51c-0.26,0.04-1.26,0.2-2.54,0.34
	c-0.6,0.06-1.16,0.12-1.44,0.14c-0.59,0.05-1.04,0.09-1.35,0.11c-0.67,0.05-1.18,0.08-1.54,0.11c-0.52,0.03-0.78,0.05-1.1,0.07
	c0,0-0.66,0.03-1.3,0.04c-1.63,0.03-3.5-0.11-3.89-0.14c-1.59-0.12-2.77-0.28-3.14-0.33c-1.06-0.15-1.86-0.3-2.2-0.36
	c-0.38-0.07-1.08-0.21-1.96-0.43c-1.19-0.29-2.07-0.55-2.68-0.73c-0.96-0.29-1.64-0.52-1.96-0.63c-0.41-0.14-0.74-0.27-0.81-0.29
	c-0.13-0.05-0.47-0.18-0.88-0.34c-0.73-0.3-1.29-0.56-1.69-0.73c-0.96-0.44-1.69-0.81-1.9-0.92c-0.29-0.15-1.11-0.49-2.18-1.18
	c-1.18-0.76-2.33-1.57-3.49-2.38c-0.15-0.1-0.25-0.26-0.43-0.45c0.49-0.39,0.9-0.77,1.36-1.08c0.79-0.54,1.61-1.03,2.41-1.55
	c1.37-0.89,2.84-1.62,4.32-2.29c2.45-1.11,4.98-1.99,7.59-2.64c1.97-0.49,3.96-0.85,5.98-1.07c2.34-0.25,4.68-0.33,7.03-0.21
	c2.72,0.14,5.42,0.44,8.11,0.93c3.68,0.67,7.27,1.68,10.75,3.07c2.59,1.03,5.04,2.32,7.4,3.8c0.41,0.26,0.81,0.55,1.2,0.84
	C69.62,85.38,69.76,85.53,69.95,85.71z"/>
<g>
	<path class="st5" d="M13.3,85.45c0.05-0.11,0.88,0.12,2.17,0.52c0.99,0.31,1.48,0.46,1.87,0.59c0.97,0.35,8.89,2.95,18.02,3.71
		c4.43,0.36,8.56,0.24,9.26,0.22c0.01,0,0.02,0,0.02,0c3.46-0.11,6.22-0.42,7.84-0.62c1.41-0.18,3.6-0.5,6.24-1.05
		c2.98-0.62,6.6-1.52,10.95-3.08c0.05-0.02,0.23-0.06,0.31-0.06c0.03,0-0.08,0.19-0.27,0.37c-0.37,0.34-1,0.89-1.54,1.25
		c-1.18,0.79-2.27,1.36-3,1.69c-1.25,0.57-2.54,1.13-3.67,1.59c-2.92,1.19-5.23,1.74-5.23,1.74c0,0-4.68,1.3-10,1.82
		c-1.23,0.12-2.53,0.2-2.53,0.2c-1.21,0.07-2.81,0.17-4.64,0.13c-2.25-0.04-3.73-0.21-5.4-0.42c-2.36-0.3-3.86-0.73-4.25-0.82
		c-1.42-0.32-2.44-0.62-2.71-0.71c-1.2-0.39-2.31-0.76-3.01-1.06c-1.99-0.86-3.62-1.62-5.29-2.43c0,0-1.15-0.64-2.86-1.79
		c-0.1-0.07,0,0-1-0.7c-0.21-0.15-0.41-0.31-0.62-0.46c-0.07-0.05-0.26-0.18-0.47-0.4C13.36,85.55,13.29,85.48,13.3,85.45z"/>
</g>
<path class="st4" d="M86.07,113.83c0.07,0.24,0.14,0.43,0.17,0.62c0.1,0.63,0.16,1.1,0.17,1.54c0.03,1.09,0.05,1.64,0.04,2.27
	c-0.01,0.32-0.02,1.06-0.08,2.02c-0.03,0.49-0.08,1.27-0.2,2.28c-0.03,0.28-0.18,1.54-0.52,3.22c-0.17,0.87-0.33,1.51-0.47,2.1
	c-0.12,0.5-0.35,1.42-0.68,2.58c-0.3,1.05-0.55,1.85-0.64,2.14c-0.2,0.63-0.48,1.51-0.91,2.66c-0.09,0.25-0.45,1.19-0.96,2.37
	c-0.24,0.55-0.47,1.07-0.59,1.32c-0.24,0.54-0.44,0.95-0.57,1.23c-0.29,0.61-0.51,1.07-0.67,1.4c-0.23,0.47-0.34,0.7-0.48,0.99
	c0,0-0.3,0.59-0.6,1.15c-0.78,1.43-1.82,2.99-2.04,3.32c-0.88,1.32-1.61,2.27-1.84,2.57c-0.65,0.85-1.18,1.47-1.4,1.73
	c-0.25,0.29-0.72,0.84-1.34,1.5c-0.83,0.89-1.5,1.53-1.96,1.97c-0.72,0.69-1.26,1.17-1.52,1.39c-0.33,0.29-0.6,0.51-0.66,0.56
	c-0.11,0.09-0.39,0.32-0.73,0.6c-0.62,0.49-1.12,0.85-1.47,1.1c-0.86,0.62-1.54,1.07-1.74,1.2c-0.27,0.18-0.98,0.72-2.1,1.31
	c-1.24,0.66-2.52,1.25-3.79,1.86c-0.16,0.08-0.35,0.09-0.61,0.16c-0.1-0.61-0.22-1.16-0.27-1.71c-0.08-0.95-0.1-1.91-0.16-2.86
	c-0.1-1.63-0.01-3.27,0.14-4.89c0.25-2.68,0.72-5.31,1.45-7.9c0.55-1.96,1.21-3.87,2.02-5.73c0.93-2.16,2.02-4.23,3.29-6.22
	c1.46-2.3,3.06-4.5,4.81-6.59c2.4-2.87,5.05-5.49,7.97-7.84c2.18-1.75,4.51-3.24,6.96-4.56c0.43-0.23,0.88-0.43,1.32-0.63
	C85.61,113.95,85.81,113.91,86.07,113.83z"/>
<g>
	<path class="st5" d="M57.9,162.98c-0.08-0.1,0.54-0.71,1.52-1.63c0.75-0.71,1.13-1.06,1.44-1.33c0.78-0.68,6.95-6.27,12.11-13.85
		c2.5-3.68,4.43-7.33,4.76-7.95c0-0.01,0.01-0.01,0.01-0.02c1.61-3.06,2.71-5.62,3.32-7.13c0.54-1.31,1.34-3.38,2.16-5.94
		c0.93-2.89,1.94-6.49,2.72-11.04c0.01-0.05,0.06-0.23,0.1-0.3c0.01-0.03,0.13,0.16,0.19,0.41c0.12,0.49,0.28,1.3,0.33,1.96
		c0.1,1.42,0.06,2.65-0.01,3.44c-0.12,1.37-0.27,2.77-0.43,3.98c-0.4,3.13-1.06,5.4-1.06,5.4c0,0-1.18,4.71-3.35,9.6
		c-0.5,1.13-1.07,2.3-1.07,2.3c-0.53,1.09-1.24,2.53-2.17,4.1c-1.15,1.94-2.02,3.14-3.03,4.49c-1.43,1.9-2.54,3-2.81,3.29
		c-0.98,1.08-1.74,1.82-1.96,2.01c-0.93,0.85-1.8,1.63-2.41,2.09c-1.73,1.31-3.19,2.35-4.72,3.4c0,0-1.12,0.69-2.97,1.61
		c-0.1,0.05,0,0-1.1,0.52c-0.23,0.11-0.47,0.2-0.7,0.31c-0.08,0.04-0.29,0.13-0.58,0.21C58.01,162.98,57.92,163.01,57.9,162.98z"/>
</g>
<path class="st6" d="M127.4,81.33"/>
<path class="st7" d="M77.97,58.13"/>
<path class="st8" d="M89.37,70.55c5.6-0.95,9.25,0.1,11.57,1.25c3.15,1.56,3.48,3.14,8.63,5.88c0,0,0.05,0.03,0.1,0.05
	c2.42,1.27,5.28,2.2,5.28,2.2c3.14,1.02,4.7,1.52,6.32,1.54c2.16,0.02,3.98-0.55,5.32-1.14"/>
</svg>
