<?xml version="1.0" standalone="no"?>
<!DOCTYPE svg PUBLIC "-//W3C//DTD SVG 20010904//EN"
 "http://www.w3.org/TR/2001/REC-SVG-20010904/DTD/svg10.dtd">
<svg version="1.0" xmlns="http://www.w3.org/2000/svg"
 width="609.000000pt" height="609.000000pt" viewBox="0 0 609.000000 609.000000"
 preserveAspectRatio="xMidYMid meet">
<metadata>
Created by potrace 1.11, written by Peter Selinger 2001-2013
</metadata>
<g transform="translate(0.000000,609.000000) scale(0.100000,-0.100000)"
fill="#000000" stroke="none">
<path d="M1434 5575 c-9 -37 -10 -229 -2 -306 36 -316 185 -626 433 -898 118
-129 190 -192 313 -274 92 -61 148 -85 164 -69 9 9 12 219 4 272 -2 14 -7 48
-11 75 -30 216 -146 519 -271 705 -66 99 -89 126 -199 235 -100 99 -200 172
-315 229 -41 21 -83 42 -92 47 -14 7 -19 4 -24 -16z"/>
<path d="M4530 5557 c-353 -178 -595 -471 -735 -892 -65 -197 -93 -365 -89
-539 1 -54 5 -100 8 -104 16 -16 129 43 241 127 56 42 238 218 295 286 42 50
144 196 183 263 96 165 162 351 188 535 12 91 14 297 2 339 l-8 27 -85 -42z"/>
<path d="M2689 3689 c-25 -4 -60 -14 -77 -23 -35 -18 -102 -93 -136 -151 -12
-22 -28 -39 -34 -38 -7 2 -12 -2 -12 -7 0 -5 5 -10 11 -10 6 0 8 -15 4 -43
-27 -178 1 -283 129 -480 31 -49 62 -100 67 -115 12 -30 35 -143 44 -217 19
-149 55 -266 90 -295 7 -6 25 -13 39 -16 49 -9 58 25 71 264 6 100 18 150 46
186 54 69 159 68 205 -3 26 -38 33 -83 40 -231 7 -166 15 -196 55 -205 36 -8
53 4 79 56 20 39 34 91 45 169 33 232 43 274 84 334 17 24 43 73 58 108 15 35
35 75 45 90 10 14 18 31 18 36 0 6 16 16 35 22 40 13 49 36 10 26 -28 -7 -30
0 -14 41 6 15 13 66 15 113 9 247 -96 394 -281 392 -75 -1 -156 -24 -233 -67
-53 -30 -62 -30 -104 -7 -93 52 -223 82 -299 71z"/>
<path d="M643 3258 c-193 -28 -358 -87 -520 -184 -123 -74 -126 -79 -83 -116
127 -105 391 -211 610 -243 88 -13 390 -14 445 -2 11 3 42 8 69 11 221 30 465
117 613 218 24 16 43 33 43 38 0 23 -210 138 -340 184 -85 31 -235 71 -300 81
-25 4 -47 8 -50 10 -10 6 -178 18 -272 19 -54 1 -151 -6 -215 -16z"/>
<path d="M5070 3272 c-282 -24 -573 -116 -768 -242 -34 -22 -62 -44 -62 -50 0
-16 79 -69 168 -112 158 -75 374 -134 572 -155 95 -10 336 -10 417 0 149 18
337 80 483 158 81 44 170 106 170 119 0 4 -26 25 -57 45 -32 21 -69 46 -83 55
-105 69 -367 156 -530 176 -59 7 -253 11 -310 6z"/>
<path d="M3714 2064 c-14 -57 -10 -186 11 -334 8 -60 50 -215 82 -304 121
-338 299 -588 547 -770 80 -59 235 -146 260 -146 8 0 16 14 19 33 8 52 0 328
-11 377 -6 25 -14 61 -17 80 -3 19 -22 82 -41 139 -101 304 -326 600 -629 829
-20 15 -131 80 -172 101 l-43 21 -6 -26z"/>
<path d="M2265 2054 c-189 -100 -371 -260 -525 -462 -184 -241 -272 -450 -316
-752 -8 -58 -8 -239 1 -290 4 -22 11 -40 16 -40 24 0 180 86 258 143 232 167
401 393 524 702 84 212 127 412 127 597 0 142 -3 145 -85 102z"/>
</g>
</svg>
